# xmcd
#
# Track frame offsets: 
#        180
#        15692
#        45010
#        64987
#        75920
#        116192
#        132852
#        148887
#        168052
#        194450
#        227480
#        248235
#
# Disc length: 3628 seconds
#
# Revision: 0
# Processed by: cddbd v1.5.2PL0 Copyright (c) Steve Scherf et al.
# Submitted via: ExactAudioCopy v0.99pb4
#
DISCID=970e2a0c
DTITLE=Various Artist - QS Sound
DYEAR=1999
DGENRE=Blues
TTITLE0=Billy Holiday - I'm a fool to want you
TTITLE1=Dave Brubeck - Take Five 
TTITLE2=Duke Ellington - C Jam blues
TTITLE3=George Benson - Summertime
TTITLE4=Grover Washington - Estate
TTITLE5=Herbie Hancock - Rockit
TTITLE6=Mile Davis - Time after time
TTITLE7=Palle Mikkelborg - Smile
TTITLE8=Stanley Clarke - Overjoyed
TTITLE9=Thelonious Monk - Straight, No chaiser
TTITLE10=Toots Thielemans - Bluesette
TTITLE11=Leon Parker - Celebration
EXTD=
EXTT0=
EXTT1=
EXTT2=
EXTT3=
EXTT4=
EXTT5=
EXTT6=
EXTT7=
EXTT8=
EXTT9=
EXTT10=
EXTT11=
PLAYORDER=
